<svg xmlns="http://www.w3.org/2000/svg" viewBox="0 0 24 24">
  <rect width="24" height="24" rx="5" fill="#F2F3F0"/>
  <g transform="translate(2,0.45)">
    <path fill="#394bba" d="M16.7,7.8c-.6,0-1,.4-1,1v1.7c0,2.9-2.1,5.5-5,5.9s-6.5-2.3-6.5-5.7v-1.9c0-.6-.4-1-1-1s-1,.4-1,1v1.9c0,3.9,2.8,7.1,6.6,7.6s.2.1.2.2v1.8c0,.6.4,1,1,1s1-.4,1-1v-1.8c0-.1,0-.2.2-.2,3.7-.6,6.6-3.8,6.6-7.6v-1.9c0-.6-.4-1-1-1Z"/>
    <path fill="#394bba" d="M10,1.8h0c1.7,0,3,1.3,3,3v6c0,1.7-1.3,3-3,3h0c-1.7,0-3-1.3-3-3v-6c0-1.7,1.3-3,3-3Z"/>
    <path opacity=".2" d="M10.7,5.8c-.3,0-.5.2-.5.5s.2.5.5.5h2.3v-1h-2.3ZM9.2,8.8h-2.2v1h2.2c.3,0,.5-.2.5-.5s-.2-.5-.5-.5Z"/>
  </g>
</svg>
